
Release info:

General
Format                                   : Matroska
Format version                           : Version 2
File size                                : 696 MiB
Duration                                 : 1h 29mn
Overall bit rate                         : 1 085 Kbps

Video
ID                                       : 1
Format                                   : MPEG-4 Visual
Format profile                           : Advanced Simple@L5
Format settings, BVOP                    : Yes
Format settings, QPel                    : No
Format settings, GMC                     : No warppoints
Format settings, Matrix                  : Custom
Codec ID                                 : V_MS/VFW/FOURCC / XVID
Codec ID/Hint                            : XviD
Duration                                 : 1h 29mn
Bit rate                                 : 935 Kbps
Width                                    : 624 pixels
Height                                   : 352 pixels
Display aspect ratio                     : 16:9
Frame rate mode                          : Constant
Frame rate                               : 23.976 fps
Color space                              : YUV
Chroma subsampling                       : 4:2:0
Bit depth                                : 8 bits
Scan type                                : Progressive
Compression mode                         : Lossy
Bits/(Pixel*Frame)                       : 0.178
Stream size                              : 600 MiB (86%)
Language                                 : English
Default                                  : Yes
Forced                                   : No

Audio
ID                                       : 2
Format                                   : MPEG Audio
Format version                           : Version 1
Format profile                           : Layer 3
Mode                                     : Joint stereo
Mode extension                           : MS Stereo
Muxing mode                              : Header stripping
Codec ID                                 : A_MPEG/L3
Codec ID/Hint                            : MP3
Duration                                 : 1h 29mn
Bit rate mode                            : Constant
Bit rate                                 : 128 Kbps
Channel(s)                               : 2 channels
Sampling rate                            : 48.0 KHz
Compression mode                         : Lossy
Stream size                              : 82.1 MiB (12%)
Language                                 : English
Default                                  : Yes
Forced                                   : No


Source:
credit to original movie ripper SuReNo (Thanks)

IMDB Info:

A down and out journey into a land of raunchy and bizarre sexual encounters. Jackson is a struggling artist with a dead end job and a terrible love life... 

Director: Dylan Reynolds
Writer: Matthew James
Stars: Akihiro Kitamura, Dallas Malloy and Matthew James 

Genres: Comedy
 
http://www.imdb.com/title/tt1630052/

Screen Shot:
 
http://www.shotpix.com/images/83984214142813819850.png 
http://www.shotpix.com/images/25571202197239954092.png 
http://www.shotpix.com/images/32315078723151392744.png 
http://www.shotpix.com/images/65017520897362301925.png 
http://www.shotpix.com/images/87764540883819090196.png 
http://www.shotpix.com/images/53799516709429290604.png